<svg width="29" height="29" viewBox="0 0 29 29" fill="none" xmlns="http://www.w3.org/2000/svg">
<rect x="0.75" y="0.71875" width="28" height="28" rx="4" fill="#264B91"/>
<path d="M12 13.4688C12 13.734 11.8946 13.9883 11.7071 14.1759C11.5196 14.3634 11.2652 14.4688 11 14.4688C10.7348 14.4688 10.4804 14.3634 10.2929 14.1759C10.1054 13.9883 10 13.734 10 13.4688C10 13.2035 10.1054 12.9492 10.2929 12.7616C10.4804 12.5741 10.7348 12.4688 11 12.4688C11.2652 12.4688 11.5196 12.5741 11.7071 12.7616C11.8946 12.9492 12 13.2035 12 13.4688ZM11 19.9688C11.2652 19.9688 11.5196 19.8634 11.7071 19.6759C11.8946 19.4883 12 19.234 12 18.9688C12 18.7035 11.8946 18.4492 11.7071 18.2616C11.5196 18.0741 11.2652 17.9688 11 17.9688C10.7348 17.9688 10.4804 18.0741 10.2929 18.2616C10.1054 18.4492 10 18.7035 10 18.9688C10 19.234 10.1054 19.4883 10.2929 19.6759C10.4804 19.8634 10.7348 19.9688 11 19.9688ZM5.75 8.84375C5.75 8.01495 6.07924 7.22009 6.66529 6.63404C7.25134 6.04799 8.0462 5.71875 8.875 5.71875H20.625C21.4538 5.71875 22.2487 6.04799 22.8347 6.63404C23.4208 7.22009 23.75 8.01495 23.75 8.84375V20.5938C23.75 21.4226 23.4208 22.2174 22.8347 22.8035C22.2487 23.3895 21.4538 23.7188 20.625 23.7188H8.875C8.0462 23.7188 7.25134 23.3895 6.66529 22.8035C6.07924 22.2174 5.75 21.4226 5.75 20.5938V8.84375ZM13.25 13.4688C13.25 13.1733 13.1918 12.8807 13.0787 12.6077C12.9657 12.3347 12.7999 12.0867 12.591 11.8778C12.3821 11.6688 12.134 11.5031 11.861 11.39C11.5881 11.2769 11.2955 11.2188 11 11.2188C10.7045 11.2188 10.4119 11.2769 10.139 11.39C9.86598 11.5031 9.61794 11.6688 9.40901 11.8778C9.20008 12.0867 9.03434 12.3347 8.92127 12.6077C8.8082 12.8807 8.75 13.1733 8.75 13.4688C8.75 14.0655 8.98705 14.6378 9.40901 15.0597C9.83097 15.4817 10.4033 15.7188 11 15.7188C11.5967 15.7188 12.169 15.4817 12.591 15.0597C13.0129 14.6378 13.25 14.0655 13.25 13.4688ZM11 21.2188C11.5967 21.2188 12.169 20.9817 12.591 20.5597C13.0129 20.1378 13.25 19.5655 13.25 18.9688C13.25 18.372 13.0129 17.7997 12.591 17.3778C12.169 16.9558 11.5967 16.7188 11 16.7188C10.4033 16.7188 9.83097 16.9558 9.40901 17.3778C8.98705 17.7997 8.75 18.372 8.75 18.9688C8.75 19.5655 8.98705 20.1378 9.40901 20.5597C9.83097 20.9817 10.4033 21.2188 11 21.2188ZM9.375 8.21875C9.20924 8.21875 9.05027 8.2846 8.93306 8.40181C8.81585 8.51902 8.75 8.67799 8.75 8.84375C8.75 9.00951 8.81585 9.16848 8.93306 9.28569C9.05027 9.4029 9.20924 9.46875 9.375 9.46875H20.125C20.2908 9.46875 20.4497 9.4029 20.5669 9.28569C20.6842 9.16848 20.75 9.00951 20.75 8.84375C20.75 8.67799 20.6842 8.51902 20.5669 8.40181C20.4497 8.2846 20.2908 8.21875 20.125 8.21875H9.375ZM14.25 13.5938C14.25 13.9388 14.53 14.2188 14.875 14.2188H20.125C20.2908 14.2188 20.4497 14.1529 20.5669 14.0357C20.6842 13.9185 20.75 13.7595 20.75 13.5938C20.75 13.428 20.6842 13.269 20.5669 13.1518C20.4497 13.0346 20.2908 12.9688 20.125 12.9688H14.875C14.53 12.9688 14.25 13.2488 14.25 13.5938ZM14.875 18.2188C14.7092 18.2188 14.5503 18.2846 14.4331 18.4018C14.3158 18.519 14.25 18.678 14.25 18.8438C14.25 19.0095 14.3158 19.1685 14.4331 19.2857C14.5503 19.4029 14.7092 19.4688 14.875 19.4688H20.125C20.2908 19.4688 20.4497 19.4029 20.5669 19.2857C20.6842 19.1685 20.75 19.0095 20.75 18.8438C20.75 18.678 20.6842 18.519 20.5669 18.4018C20.4497 18.2846 20.2908 18.2188 20.125 18.2188H14.875Z" fill="white"/>
</svg>
