<svg width="29" height="29" viewBox="0 0 29 29" fill="none" xmlns="http://www.w3.org/2000/svg">
<rect x="0.25" y="0.71875" width="28" height="28" rx="4" fill="#264B91"/>
<path d="M14.2498 8.74C14.2498 8.34328 14.1717 7.95044 14.0198 7.58391C13.868 7.21739 13.6455 6.88436 13.365 6.60383C13.0844 6.3233 12.7514 6.10078 12.3849 5.94896C12.0184 5.79714 11.6255 5.719 11.2288 5.719H8.2708C7.87084 5.71385 7.47384 5.78819 7.10283 5.93769C6.73183 6.08718 6.3942 6.30887 6.10955 6.58988C5.8249 6.8709 5.59889 7.20564 5.44463 7.57469C5.29037 7.94374 5.21094 8.33976 5.21094 8.73975C5.21094 9.13974 5.29037 9.53576 5.44463 9.90481C5.59889 10.2739 5.8249 10.6086 6.10955 10.8896C6.3942 11.1706 6.73183 11.3923 7.10283 11.5418C7.47384 11.6913 7.87084 11.7656 8.2708 11.7605H8.8498V13.219C8.8498 13.219 14.2498 12.49 14.2498 8.74ZM11.4998 16.719C11.4998 17.824 10.6048 18.719 9.4998 18.719C8.3948 18.719 7.4998 17.824 7.4998 16.719C7.4998 15.614 8.3948 14.719 9.4998 14.719C10.6048 14.719 11.4998 15.614 11.4998 16.719ZM9.4998 19.719C8.0813 19.719 5.2498 20.434 5.2498 21.8525V23.719H13.7498V21.8525C13.7498 20.4335 10.9183 19.719 9.4998 19.719ZM18.9998 18.719C20.1048 18.719 20.9998 17.824 20.9998 16.719C20.9998 15.614 20.1048 14.719 18.9998 14.719C17.8948 14.719 16.9998 15.614 16.9998 16.719C16.9998 17.824 17.8948 18.719 18.9998 18.719ZM18.9998 19.719C17.5813 19.719 14.7498 20.434 14.7498 21.8525V23.719H23.2498V21.8525C23.2498 20.4335 20.4183 19.719 18.9998 19.719ZM18.2708 6.219C17.4696 6.219 16.7012 6.53728 16.1346 7.10383C15.5681 7.67038 15.2498 8.43878 15.2498 9.24C15.2498 12.99 20.0498 13.719 20.0498 13.719V12.2605H20.2288C20.6288 12.2656 21.0258 12.1913 21.3968 12.0418C21.7678 11.8923 22.1054 11.6706 22.3901 11.3896C22.6747 11.1086 22.9007 10.7739 23.055 10.4048C23.2092 10.0358 23.2887 9.63974 23.2887 9.23975C23.2887 8.83976 23.2092 8.44374 23.055 8.07469C22.9007 7.70564 22.6747 7.3709 22.3901 7.08988C22.1054 6.80887 21.7678 6.58718 21.3968 6.43769C21.0258 6.28819 20.6288 6.21385 20.2288 6.219H18.2708Z" fill="white"/>
</svg>
