<svg width="127" height="127" viewBox="0 0 127 127" fill="none" xmlns="http://www.w3.org/2000/svg">
<g filter="url(#filter0_d_1061_524)">
<circle cx="63.4289" cy="59.7453" r="58.9524" fill="white" fill-opacity="0.44"/>
<path d="M97.2028 56.8255H87.8226C86.4946 45.5877 77.5827 36.6757 66.3449 35.3478V25.9676C66.3449 25.6299 66.0685 25.3535 65.7308 25.3535H61.1251C60.7874 25.3535 60.511 25.6299 60.511 25.9676V35.3478C49.2732 36.6757 40.3613 45.5877 39.0333 56.8255H29.6531C29.3154 56.8255 29.0391 57.1018 29.0391 57.4396V62.0452C29.0391 62.383 29.3154 62.6593 29.6531 62.6593H39.0333C40.3613 73.8971 49.2732 82.8091 60.511 84.137V93.5172C60.511 93.8549 60.7874 94.1313 61.1251 94.1313H65.7308C66.0685 94.1313 66.3449 93.8549 66.3449 93.5172V84.137C77.5827 82.8091 86.4946 73.8971 87.8226 62.6593H97.2028C97.5405 62.6593 97.8168 62.383 97.8168 62.0452V57.4396C97.8168 57.1018 97.5405 56.8255 97.2028 56.8255ZM63.428 78.4721C53.0806 78.4721 44.6983 70.0898 44.6983 59.7424C44.6983 49.395 53.0806 41.0127 63.428 41.0127C73.7753 41.0127 82.1576 49.395 82.1576 59.7424C82.1576 70.0898 73.7753 78.4721 63.428 78.4721Z" fill="#C52620" fill-opacity="0.85"/>
<path d="M63.4281 50.5312C60.9641 50.5312 58.6613 51.4831 56.9188 53.2332C55.1763 54.9757 54.2168 57.2785 54.2168 59.7426C54.2168 62.2066 55.1763 64.5094 56.9188 66.2519C58.6613 67.9867 60.9718 68.9539 63.4281 68.9539C65.8845 68.9539 68.195 67.9944 69.9374 66.2519C71.6722 64.5094 72.6394 62.1989 72.6394 59.7426C72.6394 57.2862 71.6799 54.9757 69.9374 53.2332C68.195 51.4831 65.8921 50.5312 63.4281 50.5312Z" fill="#C52620" fill-opacity="0.85"/>
</g>
<defs>
<filter id="filter0_d_1061_524" x="0.476562" y="0.792969" width="125.904" height="125.904" filterUnits="userSpaceOnUse" color-interpolation-filters="sRGB">
<feFlood flood-opacity="0" result="BackgroundImageFix"/>
<feColorMatrix in="SourceAlpha" type="matrix" values="0 0 0 0 0 0 0 0 0 0 0 0 0 0 0 0 0 0 127 0" result="hardAlpha"/>
<feOffset dy="4"/>
<feGaussianBlur stdDeviation="2"/>
<feComposite in2="hardAlpha" operator="out"/>
<feColorMatrix type="matrix" values="0 0 0 0 0 0 0 0 0 0 0 0 0 0 0 0 0 0 0.25 0"/>
<feBlend mode="normal" in2="BackgroundImageFix" result="effect1_dropShadow_1061_524"/>
<feBlend mode="normal" in="SourceGraphic" in2="effect1_dropShadow_1061_524" result="shape"/>
</filter>
</defs>
</svg>
