<svg width="127" height="127" viewBox="0 0 127 127" fill="none" xmlns="http://www.w3.org/2000/svg">
<g filter="url(#filter0_d_1061_552)">
<circle cx="63.4133" cy="59.6672" r="58.9524" fill="white"/>
<g clip-path="url(#clip0_1061_552)">
<path fill-rule="evenodd" clip-rule="evenodd" d="M51.9563 30.1895C54.1279 30.1895 56.2105 31.0521 57.746 32.5876C59.2815 34.1231 60.1442 36.2057 60.1442 38.3773V43.29H66.6944V38.3773C66.6941 36.2985 67.4845 34.2974 68.9053 32.7799C70.326 31.2625 72.2708 30.3422 74.3451 30.2058L75.0755 30.1895C77.137 30.1901 79.146 30.8391 80.8182 32.0447C82.4904 33.2502 83.7411 34.9511 84.3932 36.9068L94.8802 68.3644C95.7792 70.3689 96.2186 72.549 96.1665 74.7452C96.1143 76.9414 95.5718 79.0982 94.5787 81.0577C93.5856 83.0173 92.167 84.73 90.4267 86.0707C88.6864 87.4113 86.6684 88.346 84.5203 88.8062C82.3723 89.2665 80.1485 89.2407 78.0117 88.7308C75.8748 88.2209 73.879 87.2398 72.1702 85.8592C70.4614 84.4785 69.0829 82.7334 68.1355 80.7514C67.188 78.7693 66.6957 76.6006 66.6944 74.4037V49.8403H60.1442V74.4037C60.1429 76.6006 59.6505 78.7693 58.7031 80.7514C57.7557 82.7334 56.3771 84.4785 54.6684 85.8592C52.9596 87.2398 50.9638 88.2209 48.8269 88.7308C46.6901 89.2407 44.4663 89.2665 42.3182 88.8062C40.1702 88.346 38.1522 87.4113 36.4118 86.0707C34.6715 84.73 33.2529 83.0173 32.2598 81.0577C31.2668 79.0982 30.7243 76.9414 30.6721 74.7452C30.62 72.549 31.0594 70.3689 31.9584 68.3644L42.4421 36.9068C43.0622 35.0479 44.224 33.417 45.7782 32.2235C47.3323 31.03 49.2078 30.3285 51.1637 30.2091L51.9563 30.1895ZM45.4061 66.2159C43.8725 66.2153 42.3695 66.6454 41.0684 67.4572C39.7673 68.269 38.7204 69.4299 38.0468 70.8077C37.6473 72.0064 37.2182 73.1232 37.2182 74.4037C37.2182 76.0231 37.6984 77.6062 38.5981 78.9527C39.4978 80.2991 40.7766 81.3486 42.2727 81.9683C43.7688 82.588 45.4151 82.7502 47.0034 82.4343C48.5917 82.1183 50.0506 81.3385 51.1957 80.1934C52.3408 79.0483 53.1206 77.5894 53.4366 76.0011C53.7525 74.4128 53.5904 72.7665 52.9706 71.2704C52.3509 69.7743 51.3015 68.4955 49.955 67.5958C48.6085 66.6961 47.0255 66.2159 45.4061 66.2159ZM81.4325 66.2159C79.8131 66.2159 78.2301 66.6961 76.8836 67.5958C75.5371 68.4955 74.4877 69.7743 73.8679 71.2704C73.2482 72.7665 73.0861 74.4128 73.402 76.0011C73.7179 77.5894 74.4978 79.0483 75.6428 80.1934C76.7879 81.3385 78.2469 82.1183 79.8352 82.4343C81.4234 82.7502 83.0697 82.588 84.5659 81.9683C86.062 81.3486 87.3408 80.2991 88.2405 78.9527C89.1401 77.6062 89.6204 76.0231 89.6204 74.4037C89.6204 73.1264 89.1913 72.0064 88.7917 70.8077C88.1182 69.4299 87.0712 68.269 85.7701 67.4572C84.469 66.6454 82.9661 66.2153 81.4325 66.2159ZM51.9563 36.7397C50.4825 36.7397 49.1397 37.5356 48.6583 38.9799L41.5971 60.1635C43.623 59.6231 45.7408 59.5206 47.8094 59.8628C49.878 60.205 51.85 60.9841 53.5939 62.1482V38.3773C53.5939 37.943 53.4214 37.5265 53.1143 37.2194C52.8072 36.9122 52.3906 36.7397 51.9563 36.7397ZM75.0755 36.7397C74.1191 36.7397 73.2447 37.3391 73.2447 38.3773V62.1482C74.9887 60.9843 76.9606 60.2053 79.0292 59.8631C81.0978 59.5209 83.2156 59.6233 85.2415 60.1635L78.1803 38.9799C77.963 38.3275 77.5459 37.76 76.988 37.3579C76.4301 36.9558 75.7599 36.7396 75.0722 36.7397" fill="#C52620" fill-opacity="0.85"/>
</g>
</g>
<defs>
<filter id="filter0_d_1061_552" x="0.460938" y="0.714844" width="125.904" height="125.904" filterUnits="userSpaceOnUse" color-interpolation-filters="sRGB">
<feFlood flood-opacity="0" result="BackgroundImageFix"/>
<feColorMatrix in="SourceAlpha" type="matrix" values="0 0 0 0 0 0 0 0 0 0 0 0 0 0 0 0 0 0 127 0" result="hardAlpha"/>
<feOffset dy="4"/>
<feGaussianBlur stdDeviation="2"/>
<feComposite in2="hardAlpha" operator="out"/>
<feColorMatrix type="matrix" values="0 0 0 0 0 0 0 0 0 0 0 0 0 0 0 0 0 0 0.25 0"/>
<feBlend mode="normal" in2="BackgroundImageFix" result="effect1_dropShadow_1061_552"/>
<feBlend mode="normal" in="SourceGraphic" in2="effect1_dropShadow_1061_552" result="shape"/>
</filter>
<clipPath id="clip0_1061_552">
<rect width="78.6032" height="78.6032" fill="white" transform="translate(24.1133 20.3633)"/>
</clipPath>
</defs>
</svg>
