<svg width="127" height="127" viewBox="0 0 127 127" fill="none" xmlns="http://www.w3.org/2000/svg">
<g filter="url(#filter0_d_1447_5)">
<circle cx="63.4133" cy="59.6672" r="58.9524" fill="white"/>
<path d="M93.1864 49.5507C95.3732 56.2689 95.2332 63.528 92.789 70.1569C90.3448 76.7859 85.7388 82.3982 79.7141 86.0887C73.6894 89.7792 66.5971 91.3327 59.5813 90.4986C52.5655 89.6645 46.0352 86.4914 41.0438 81.4911C36.0523 76.4909 32.8907 69.955 32.0689 62.9378C31.2471 55.9205 32.813 48.831 36.5141 42.8128C40.2152 36.7945 45.8357 32.1984 52.4689 29.7659C59.1021 27.3333 66.3614 27.2061 73.0758 29.4047L68.9609 33.5195C68.733 33.7436 68.5286 33.9912 68.34 34.2466C62.9639 33.1615 57.3812 33.8354 52.4178 36.1687C47.4543 38.5019 43.3736 42.3706 40.779 47.2026C38.1844 52.0346 37.2138 57.5734 38.0108 62.9997C38.8077 68.426 41.3299 73.4518 45.2042 77.3337C49.0785 81.2157 54.0993 83.7477 59.5241 84.5552C64.9488 85.3628 70.4894 84.4031 75.3265 81.8181C80.1636 79.233 84.0403 75.1598 86.3833 70.2009C88.7263 65.2421 89.4112 59.6608 88.3366 54.2826C88.6055 54.0918 88.8579 53.8788 89.0912 53.6459L93.1864 49.5507ZM82.5553 55.3712C83.3991 59.5103 82.8866 63.8111 81.0939 67.636C79.3012 71.4609 76.3237 74.6064 72.6028 76.606C68.8819 78.6056 64.6156 79.353 60.4365 78.7374C56.2574 78.1217 52.388 76.1758 49.4018 73.188C46.4156 70.2003 44.4716 66.3299 43.8581 62.1505C43.2446 57.971 43.9942 53.7052 45.9957 49.9853C47.9973 46.2654 51.1442 43.2895 54.9701 41.4987C58.7959 39.708 63.0969 39.1977 67.2356 40.0436V46.1196C64.3023 45.244 61.1608 45.3718 58.3084 46.4828C55.456 47.5938 53.0556 49.6245 51.4874 52.2535C49.9192 54.8824 49.2727 57.9594 49.6503 60.9972C50.0279 64.0349 51.408 66.86 53.5721 69.025C55.7362 71.19 58.5606 72.5713 61.5983 72.9502C64.6359 73.3291 67.7131 72.6839 70.3427 71.1168C72.9723 69.5497 75.0041 67.1502 76.1163 64.2983C77.2285 61.4463 77.3576 58.3048 76.4832 55.3712H82.5553ZM63.2976 65.1966C64.2017 65.1971 65.0937 64.9896 65.9048 64.5902C66.7159 64.1909 67.4243 63.6103 67.9752 62.8934C68.5261 62.1765 68.9047 61.3425 69.0817 60.4559C69.2588 59.5693 69.2295 58.6539 68.9963 57.7804L75.2138 51.559L75.3317 51.4411H84.9213C85.1795 51.4415 85.4353 51.3911 85.674 51.2926C85.9128 51.1942 86.1297 51.0496 86.3126 50.8673L94.1729 43.007C94.4484 42.7321 94.6361 42.3817 94.7123 42C94.7884 41.6184 94.7495 41.2227 94.6004 40.8632C94.4514 40.5037 94.199 40.1965 93.8752 39.9806C93.5514 39.7648 93.1708 39.6499 92.7816 39.6506H82.9562V29.8252C82.9561 29.4368 82.841 29.0572 82.6253 28.7343C82.4096 28.4113 82.1031 28.1595 81.7444 28.0106C81.3857 27.8618 80.9909 27.8225 80.6099 27.8979C80.2289 27.9732 79.8788 28.1597 79.6038 28.4339L71.7435 36.2942C71.5604 36.4767 71.4151 36.6936 71.316 36.9323C71.2169 37.1711 71.1658 37.427 71.1657 37.6855V47.2751C71.1254 47.3133 71.086 47.3526 71.0478 47.393L64.8303 53.6027C63.9561 53.3681 63.0397 53.3378 62.1519 53.5142C61.2641 53.6906 60.4288 54.0689 59.7107 54.6199C58.9926 55.1708 58.4108 55.8796 58.0106 56.6914C57.6103 57.5032 57.4022 58.3963 57.4023 59.3014C57.4023 60.8649 58.0234 62.3644 59.129 63.47C60.2346 64.5755 61.734 65.1966 63.2976 65.1966Z" fill="#C52620" fill-opacity="0.85"/>
</g>
<defs>
<filter id="filter0_d_1447_5" x="0.460938" y="0.714844" width="125.904" height="125.904" filterUnits="userSpaceOnUse" color-interpolation-filters="sRGB">
<feFlood flood-opacity="0" result="BackgroundImageFix"/>
<feColorMatrix in="SourceAlpha" type="matrix" values="0 0 0 0 0 0 0 0 0 0 0 0 0 0 0 0 0 0 127 0" result="hardAlpha"/>
<feOffset dy="4"/>
<feGaussianBlur stdDeviation="2"/>
<feComposite in2="hardAlpha" operator="out"/>
<feColorMatrix type="matrix" values="0 0 0 0 0 0 0 0 0 0 0 0 0 0 0 0 0 0 0.25 0"/>
<feBlend mode="normal" in2="BackgroundImageFix" result="effect1_dropShadow_1447_5"/>
<feBlend mode="normal" in="SourceGraphic" in2="effect1_dropShadow_1447_5" result="shape"/>
</filter>
</defs>
</svg>
