<svg width="50" height="61" viewBox="0 0 50 61" fill="none" xmlns="http://www.w3.org/2000/svg">
<path d="M0 0.21875H50V35.2188C50 49.0259 38.8071 60.2188 25 60.2188C11.1929 60.2188 0 49.0259 0 35.2188V0.21875Z" fill="#C52620"/>
<g clip-path="url(#clip0_1027_2341)">
<path d="M31.9801 26.5034C33.3952 26.5663 34.5901 27.1166 35.565 28.1543C36.5398 29.1921 37.0273 30.4185 37.0273 31.8336C37.0273 33.3116 36.5005 34.5773 35.4471 35.6307C34.3936 36.6842 33.1279 37.2109 31.6499 37.2109C30.7065 37.2109 29.8417 36.983 29.0556 36.527C28.2694 36.071 27.6326 35.4342 27.1452 34.6166C26.6578 33.799 26.3826 32.887 26.3197 31.8807C26.131 29.4594 26.5162 27.2188 27.4754 25.1591C28.4345 23.0993 29.6059 21.4562 30.9895 20.2298C31.1467 20.104 31.304 20.104 31.4612 20.2298C31.6184 20.387 31.8543 20.6072 32.1688 20.8902C32.5776 21.3304 32.9549 21.7235 33.3008 22.0694C33.4581 22.2267 33.4738 22.3839 33.348 22.5411C32.3417 24.0191 31.8857 25.3399 31.9801 26.5034ZM31.6499 36.4562C32.9392 36.4562 34.032 36.0081 34.9282 35.1119C35.8244 34.2157 36.2725 33.1307 36.2725 31.8572C36.2725 30.5836 35.8244 29.4987 34.9282 28.6024C34.032 27.7062 32.9392 27.2581 31.6499 27.2581C31.5241 27.2581 31.4219 27.1874 31.3433 27.0458C31.2647 26.9043 31.2175 26.6528 31.2018 26.2911C31.1861 25.9295 31.2804 25.3792 31.4848 24.6402C31.6892 23.9012 32.043 23.1543 32.5461 22.3996C32.2631 22.1166 31.9486 21.8021 31.6027 21.4562C31.414 21.2675 31.2883 21.126 31.2254 21.0317C30.8166 21.4091 30.4156 21.8572 30.0225 22.376C29.6295 22.8949 29.1578 23.6182 28.6074 24.5458C28.0571 25.4735 27.6405 26.5741 27.3574 27.8477C27.0744 29.1213 26.9801 30.4499 27.0744 31.8336C27.1688 33.1543 27.6483 34.255 28.5131 35.1355C29.3779 36.016 30.4235 36.4562 31.6499 36.4562ZM18.5839 26.5034C19.9989 26.5663 21.1939 27.1166 22.1688 28.1543C23.1436 29.1921 23.631 30.4185 23.631 31.8336C23.631 33.3116 23.1043 34.5773 22.0508 35.6307C20.9974 36.6842 19.7317 37.2109 18.2537 37.2109C16.8386 37.2109 15.62 36.7078 14.598 35.7015C13.576 34.6952 13.0178 33.4216 12.9235 31.8807C12.7348 29.4594 13.12 27.2188 14.0791 25.1591C15.0383 23.0993 16.1939 21.4562 17.5461 20.2298C17.7348 20.104 17.9078 20.104 18.065 20.2298C18.2222 20.3556 18.4581 20.5914 18.7725 20.9374C19.1499 21.3462 19.5273 21.7235 19.9046 22.0694C20.0304 22.2267 20.0461 22.3839 19.9518 22.5411C18.914 24.0191 18.4581 25.3399 18.5839 26.5034ZM18.2537 36.4562C19.543 36.4562 20.6357 36.0081 21.532 35.1119C22.4282 34.2157 22.8763 33.1307 22.8763 31.8572C22.8763 30.5836 22.4282 29.4987 21.532 28.6024C20.6357 27.7062 19.543 27.2581 18.2537 27.2581C18.0964 27.2581 17.9864 27.1874 17.9235 27.0458C17.8606 26.9043 17.8213 26.6528 17.8056 26.2911C17.7898 25.9295 17.8842 25.3792 18.0886 24.6402C18.293 23.9012 18.6467 23.1543 19.1499 22.3996C18.8354 22.0852 18.521 21.7707 18.2065 21.4562C18.0178 21.2361 17.892 21.0946 17.8291 21.0317C17.4203 21.4091 17.0194 21.8572 16.6263 22.376C16.2332 22.8949 15.7615 23.6182 15.2112 24.5458C14.6609 25.4735 14.2442 26.5741 13.9612 27.8477C13.6782 29.1213 13.5839 30.4499 13.6782 31.8336C13.7411 32.7141 13.9769 33.5081 14.3857 34.2157C14.7945 34.9232 15.337 35.4735 16.0131 35.8666C16.6892 36.2597 17.4361 36.4562 18.2537 36.4562Z" fill="white"/>
<path d="M18.2537 36.4562C19.543 36.4562 20.6357 36.0081 21.532 35.1119C22.4282 34.2157 22.8763 33.1307 22.8763 31.8572C22.8763 30.5836 22.4282 29.4987 21.532 28.6024C20.6357 27.7062 19.543 27.2581 18.2537 27.2581C18.0964 27.2581 17.9864 27.1874 17.9235 27.0458C17.8606 26.9043 17.8213 26.6528 17.8056 26.2911C17.7898 25.9295 17.8842 25.3792 18.0886 24.6402C18.293 23.9012 18.6467 23.1543 19.1499 22.3996L18.2065 21.4562C18.0178 21.2361 17.892 21.0946 17.8291 21.0317C17.4203 21.4091 17.0194 21.8572 16.6263 22.376C16.2332 22.8949 15.7615 23.6182 15.2112 24.5458C14.6609 25.4735 14.2442 26.5741 13.9612 27.8477C13.6782 29.1213 13.5839 30.4499 13.6782 31.8336C13.7411 32.7141 13.9769 33.5081 14.3857 34.2157C14.7945 34.9232 15.337 35.4735 16.0131 35.8666C16.6892 36.2597 17.4361 36.4562 18.2537 36.4562Z" fill="white"/>
<path d="M31.6499 36.4562C32.9392 36.4562 34.032 36.0081 34.9282 35.1119C35.8244 34.2157 36.2725 33.1307 36.2725 31.8572C36.2725 30.5836 35.8244 29.4987 34.9282 28.6024C34.032 27.7062 32.9392 27.2581 31.6499 27.2581C31.5241 27.2581 31.4219 27.1874 31.3433 27.0458C31.2647 26.9043 31.2175 26.6528 31.2018 26.2911C31.1861 25.9295 31.2804 25.3792 31.4848 24.6402C31.6892 23.9012 32.043 23.1543 32.5461 22.3996L31.6027 21.4562C31.414 21.2675 31.2883 21.126 31.2254 21.0317C30.8166 21.4091 30.4156 21.8572 30.0225 22.376C29.6295 22.8949 29.1578 23.6182 28.6074 24.5458C28.0571 25.4735 27.6405 26.5741 27.3574 27.8477C27.0744 29.1213 26.9801 30.4499 27.0744 31.8336C27.1688 33.1543 27.6483 34.255 28.5131 35.1355C29.3779 36.016 30.4235 36.4562 31.6499 36.4562Z" fill="white"/>
</g>
<defs>
<clipPath id="clip0_1027_2341">
<rect width="25" height="25" fill="white" transform="matrix(1 0 0 -1 12.5 41.2188)"/>
</clipPath>
</defs>
</svg>
