<svg width="29" height="29" viewBox="0 0 29 29" fill="none" xmlns="http://www.w3.org/2000/svg">
<rect x="0.75" y="0.71875" width="28" height="28" rx="4" fill="#264B91"/>
<g clip-path="url(#clip0_1027_2320)">
<path d="M17.5696 13.0275C15.1718 14.2575 12.4876 11.9647 13.3238 9.40274C14.1638 6.83999 17.6836 6.57749 18.8911 8.98874C19.0705 9.34069 19.1787 9.72461 19.2094 10.1185C19.2402 10.5123 19.1928 10.9084 19.0701 11.2839C18.9474 11.6594 18.7517 12.007 18.4944 12.3068C18.237 12.6065 17.923 12.8524 17.5703 13.0305L17.5696 13.0275ZM14.3513 3.28874C16.8196 2.39099 19.6441 2.43749 21.7576 4.27349C22.2042 4.64127 22.5552 5.11166 22.7806 5.64449C22.9913 6.33149 22.0306 5.57324 21.9016 5.47649C21.234 5.02041 20.5109 4.65143 19.7498 4.37849C15.5858 3.10574 11.6476 5.42549 9.21457 9.03449C8.22219 10.6257 7.4644 12.3517 6.96457 14.1592C6.91786 14.3812 6.8472 14.5975 6.75382 14.8042C6.64507 15.0075 6.70282 14.253 6.70282 14.2305C6.79282 13.4767 6.93757 12.7267 7.13257 11.9917C8.26132 8.05874 10.7618 4.78499 14.3513 3.28499V3.28874ZM14.3866 24.285V15.5197C14.6363 15.5467 14.8703 15.5587 15.1208 15.5587C16.2578 15.5625 17.3708 15.2497 18.3436 14.664V24.2812C18.3436 25.1062 18.1906 25.7115 17.8193 26.1105C17.6366 26.3112 17.4123 26.4697 17.162 26.5749C16.9118 26.68 16.6416 26.7294 16.3703 26.7195C16.1018 26.7292 15.8345 26.6797 15.5873 26.5744C15.3401 26.4692 15.1191 26.3108 14.9401 26.1105C14.5733 25.7077 14.3821 25.0987 14.3821 24.2857L14.3866 24.285Z" fill="white"/>
</g>
<defs>
<clipPath id="clip0_1027_2320">
<rect width="24" height="24" fill="white" transform="translate(2.75 2.71875)"/>
</clipPath>
</defs>
</svg>
