<svg width="29" height="29" viewBox="0 0 29 29" fill="none" xmlns="http://www.w3.org/2000/svg">
<rect x="0.25" y="0.71875" width="28" height="28" rx="4" fill="#264B91"/>
<path d="M6.865 21.7188C6.405 21.7188 6.021 21.5647 5.713 21.2568C5.40433 20.9481 5.25 20.5638 5.25 20.1038V9.33375C5.25 8.87375 5.40433 8.48975 5.713 8.18175C6.021 7.87308 6.405 7.71875 6.865 7.71875H21.635C22.095 7.71875 22.479 7.87308 22.787 8.18175C23.0957 8.48975 23.25 8.87375 23.25 9.33375V20.1038C23.25 20.5638 23.096 20.9478 22.788 21.2558C22.4793 21.5644 22.095 21.7188 21.635 21.7188H6.865ZM6.25 10.7188H22.25V9.33375C22.25 9.18042 22.186 9.03942 22.058 8.91075C21.9293 8.78275 21.7883 8.71875 21.635 8.71875H6.865C6.71167 8.71875 6.57067 8.78275 6.442 8.91075C6.314 9.03942 6.25 9.18042 6.25 9.33375V10.7188ZM13.2 18.5387L18.158 13.5808L17.438 12.8608L13.2 17.0997L11.062 14.9607L10.342 15.6807L13.2 18.5387Z" fill="white"/>
</svg>
